<svg width="512" height="512" viewBox="0 0 512 512" fill="none" xmlns="http://www.w3.org/2000/svg">
<path fill-rule="evenodd" clip-rule="evenodd" d="M255.861 59.6042C219.006 59.6042 189.104 89.4994 189.104 126.407H129.5C129.5 56.6076 186.06 0 255.861 0C325.661 0 382.222 56.6076 382.222 126.407C382.222 153.827 373.46 179.289 358.588 200.028C350.413 211.427 341.055 222.537 332.421 232.759L331.669 233.649C323.051 243.851 315.086 253.278 308.005 262.846C293.181 282.874 285.663 299.134 285.663 314.687V337.36H226.059V314.687C226.059 279.609 243.042 250.428 260.096 227.387C268.348 216.237 277.427 205.492 285.693 195.71C286.093 195.237 286.492 194.765 286.888 194.296C295.74 183.816 303.572 174.466 310.151 165.293C318.001 154.346 322.618 140.96 322.618 126.407C322.618 89.4994 292.716 59.6042 255.861 59.6042Z" fill="url(#paint0_linear_1_4)"/>
<path d="M226.059 361.201H285.663V512H226.059V361.201Z" fill="url(#paint1_linear_1_4)"/>
<path d="M226.059 476.237H345.267V512H226.059V476.237Z" fill="url(#paint2_linear_1_4)"/>
<path d="M226.059 408.885H345.267V444.647H226.059V408.885Z" fill="url(#paint3_linear_1_4)"/>
<defs>
<linearGradient id="paint0_linear_1_4" x1="255.861" y1="0" x2="255.861" y2="512" gradientUnits="userSpaceOnUse">
<stop stop-color="#897121"/>
<stop offset="0.5" stop-color="#F7D258"/>
<stop offset="1" stop-color="#897121"/>
</linearGradient>
<linearGradient id="paint1_linear_1_4" x1="255.861" y1="0" x2="255.861" y2="512" gradientUnits="userSpaceOnUse">
<stop stop-color="#897121"/>
<stop offset="0.5" stop-color="#F7D258"/>
<stop offset="1" stop-color="#897121"/>
</linearGradient>
<linearGradient id="paint2_linear_1_4" x1="255.861" y1="0" x2="255.861" y2="512" gradientUnits="userSpaceOnUse">
<stop stop-color="#897121"/>
<stop offset="0.5" stop-color="#F7D258"/>
<stop offset="1" stop-color="#897121"/>
</linearGradient>
<linearGradient id="paint3_linear_1_4" x1="255.861" y1="0" x2="255.861" y2="512" gradientUnits="userSpaceOnUse">
<stop stop-color="#897121"/>
<stop offset="0.5" stop-color="#F7D258"/>
<stop offset="1" stop-color="#897121"/>
</linearGradient>
</defs>
</svg>
