<svg width="256" height="256" viewBox="0 0 256 256" fill="none" xmlns="http://www.w3.org/2000/svg">
<g clip-path="url(#clip0_54_2)">
<path fill-rule="evenodd" clip-rule="evenodd" d="M256 128C256 198.692 198.692 256 128 256C57.3076 256 0 198.692 0 128C0 57.3076 57.3076 0 128 0C198.692 0 256 57.3076 256 128ZM128 45.5C82.4365 45.5 45.5 82.4365 45.5 128C45.5 132.142 42.1421 135.5 38 135.5C33.8579 135.5 30.5 132.142 30.5 128C30.5 74.1522 74.1522 30.5 128 30.5C132.142 30.5 135.5 33.8579 135.5 38C135.5 42.1421 132.142 45.5 128 45.5ZM218 120.5C222.142 120.5 225.5 123.858 225.5 128C225.5 181.848 181.848 225.5 128 225.5C123.858 225.5 120.5 222.142 120.5 218C120.5 213.858 123.858 210.5 128 210.5C173.563 210.5 210.5 173.563 210.5 128C210.5 123.858 213.858 120.5 218 120.5ZM116.5 128C116.5 121.649 121.649 116.5 128 116.5C134.351 116.5 139.5 121.649 139.5 128C139.5 134.351 134.351 139.5 128 139.5C121.649 139.5 116.5 134.351 116.5 128ZM128 91.5C107.842 91.5 91.5 107.842 91.5 128C91.5 148.158 107.842 164.5 128 164.5C148.158 164.5 164.5 148.158 164.5 128C164.5 107.842 148.158 91.5 128 91.5Z" fill="black"/>
</g>
<defs>
<clipPath id="clip0_54_2">
<rect width="256" height="256" fill="white"/>
</clipPath>
</defs>
</svg>
