<svg width="2982" height="512" viewBox="0 0 2982 512" fill="none" xmlns="http://www.w3.org/2000/svg">
<g clip-path="url(#clip0_33_18)">
<path fill-rule="evenodd" clip-rule="evenodd" d="M1557.36 59.6043C1520.51 59.6043 1490.6 89.4994 1490.6 126.407H1431C1431 56.6076 1487.56 6.10352e-05 1557.36 6.10352e-05C1627.16 6.10352e-05 1683.72 56.6076 1683.72 126.407C1683.72 153.827 1674.96 179.289 1660.09 200.028C1651.91 211.427 1642.56 222.537 1633.92 232.759L1633.17 233.649C1624.55 243.851 1616.59 253.279 1609.5 262.846C1594.68 282.874 1587.16 299.134 1587.16 314.687V337.36H1527.56V314.687C1527.56 279.609 1544.54 250.428 1561.6 227.387C1569.85 216.237 1578.93 205.492 1587.19 195.711C1587.59 195.237 1587.99 194.765 1588.39 194.296C1597.24 183.817 1605.07 174.466 1611.65 165.293C1619.5 154.346 1624.12 140.96 1624.12 126.407C1624.12 89.4994 1594.22 59.6043 1557.36 59.6043Z" fill="url(#paint0_linear_33_18)"/>
<path d="M1527.56 361.201H1587.16V512H1527.56V361.201Z" fill="url(#paint1_linear_33_18)"/>
<path d="M1527.56 476.238H1646.77V512H1527.56V476.238Z" fill="url(#paint2_linear_33_18)"/>
<path d="M1527.56 408.885H1646.77V444.647H1527.56V408.885Z" fill="url(#paint3_linear_33_18)"/>
<path d="M2421.85 47.616C2423.56 47.616 2424.75 48.64 2425.43 50.688C2426.12 52.3947 2425.95 53.9307 2424.92 55.296C2407.51 72.3627 2391.98 91.4773 2378.33 112.64C2365.02 133.461 2353.75 154.965 2344.54 177.152C2335.32 199.339 2328.32 221.355 2323.55 243.2C2319.11 264.704 2316.89 284.501 2316.89 302.592C2316.89 321.024 2319.11 335.531 2323.55 346.112C2327.98 356.352 2334.13 361.472 2341.98 361.472C2348.8 361.472 2355.29 358.912 2361.43 353.792C2367.92 348.672 2374.23 341.504 2380.38 332.288C2381.4 331.605 2382.43 331.605 2383.45 332.288C2384.82 332.971 2385.33 334.165 2384.99 335.872C2381.23 341.675 2376.96 347.477 2372.19 353.28C2367.41 358.741 2362.12 363.861 2356.31 368.64C2350.85 373.077 2345.22 376.832 2339.42 379.904C2333.62 382.635 2327.98 384 2322.52 384C2309.89 384 2300.51 378.197 2294.36 366.592C2288.22 354.987 2285.15 339.456 2285.15 320C2285.15 303.957 2287.02 286.208 2290.78 266.752C2294.53 246.955 2299.99 226.816 2307.16 206.336C2314.67 185.856 2323.55 165.888 2333.79 146.432C2344.37 126.635 2356.31 108.885 2369.63 93.184C2349.15 108.544 2327.98 126.976 2306.14 148.48C2284.29 169.984 2263.13 193.024 2242.65 217.6C2222.51 241.835 2203.57 266.923 2185.82 292.864C2168.41 318.805 2153.9 344.064 2142.3 368.64C2141.62 370.005 2140.25 371.712 2138.2 373.76C2136.15 375.467 2133.76 377.173 2131.03 378.88C2128.3 380.245 2125.57 381.44 2122.84 382.464C2120.11 383.488 2117.72 384 2115.67 384C2112.94 384 2111.92 382.805 2112.6 380.416C2119.09 327.509 2128.3 280.405 2140.25 239.104C2152.54 197.803 2166.87 159.744 2183.26 124.928C2155.95 165.888 2129.16 202.581 2102.87 235.008C2076.93 267.093 2050.65 294.229 2024.03 316.416C1997.74 338.261 1970.95 354.987 1943.64 366.592C1916.34 378.197 1888.18 384 1859.16 384C1827.08 384 1802.33 375.979 1784.92 359.936C1767.86 343.893 1759.32 322.731 1759.32 296.448C1759.32 279.04 1764.27 263.509 1774.17 249.856C1784.07 235.861 1797.72 225.621 1815.13 219.136C1816.5 218.453 1817.35 218.795 1817.69 220.16C1818.37 221.525 1818.37 222.72 1817.69 223.744C1807.11 230.571 1799.6 238.421 1795.16 247.296C1791.07 256.171 1789.02 267.776 1789.02 282.112C1789.02 293.376 1790.9 304.128 1794.65 314.368C1798.4 324.267 1803.87 333.141 1811.03 340.992C1818.2 348.501 1827.25 354.475 1838.17 358.912C1849.09 363.349 1861.72 365.568 1876.06 365.568C1905.75 365.568 1934.08 358.741 1961.05 345.088C1988.36 331.435 2014.81 312.832 2040.41 289.28C2066.35 265.387 2091.61 237.397 2116.19 205.312C2141.1 173.227 2165.85 138.752 2190.43 101.888C2166.53 93.696 2141.44 86.8693 2115.16 81.408C2089.22 75.6053 2064.13 72.704 2039.9 72.704C2012.25 72.704 1990.92 80.5546 1975.9 96.256C1960.88 111.616 1951.66 132.437 1948.25 158.72C1947.57 160.427 1946.54 161.109 1945.18 160.768C1944.15 160.427 1943.47 159.403 1943.13 157.696C1946.88 123.904 1959.17 98.1333 1979.99 80.384C2000.82 62.6346 2027.95 53.76 2061.4 53.76C2075.06 53.76 2089.56 54.784 2104.92 56.832C2120.28 58.5387 2135.3 60.928 2149.98 64C2165 67.072 2179.16 70.4853 2192.47 74.24C2206.13 77.6533 2218.07 81.0667 2228.31 84.48C2229.68 84.1387 2231.39 83.6267 2233.43 82.944C2234.8 83.2853 2235.65 84.1387 2235.99 85.504C2236.34 86.8693 2236.16 88.064 2235.48 89.088C2230.7 91.8187 2226.61 95.5733 2223.19 100.352C2220.12 104.789 2216.71 110.421 2212.95 117.248C2195.89 151.723 2182.23 187.733 2171.99 225.28C2162.1 262.485 2153.9 300.203 2147.42 338.432C2163.12 310.101 2181.55 281.771 2202.71 253.44C2224.22 224.768 2247.09 197.632 2271.32 172.032C2295.56 146.432 2320.47 122.88 2346.07 101.376C2372.02 79.872 2397.27 61.952 2421.85 47.616ZM2543.37 351.744C2544.05 351.061 2544.91 351.061 2545.93 351.744C2546.95 352.427 2547.3 353.451 2546.95 354.816C2540.81 363.691 2533.98 370.859 2526.47 376.32C2518.96 381.44 2511.8 384 2504.97 384C2497.12 384 2492 378.539 2489.61 367.616C2487.56 356.352 2488.76 343.04 2493.19 327.68C2483.98 342.357 2473.91 354.987 2462.99 365.568C2452.4 375.808 2441.14 381.952 2429.19 384C2421 384 2414.69 380.245 2410.25 372.736C2405.81 365.227 2403.59 356.523 2403.59 346.624C2403.59 335.36 2406.32 324.267 2411.79 313.344C2417.25 302.08 2424.42 292.011 2433.29 283.136C2442.51 274.261 2452.58 267.093 2463.5 261.632C2474.76 255.829 2486.03 252.928 2497.29 252.928C2509.24 252.928 2518.62 255.829 2525.45 261.632C2528.86 259.243 2533.13 257.195 2538.25 255.488C2543.71 253.781 2548.49 252.928 2552.59 252.928C2553.95 252.928 2554.63 253.781 2554.63 255.488C2546.78 265.045 2539.96 275.627 2534.15 287.232C2528.69 298.496 2524.43 309.419 2521.35 320C2518.28 330.24 2516.4 339.456 2515.72 347.648C2515.04 355.84 2515.72 361.472 2517.77 364.544C2519.48 366.592 2522.38 367.275 2526.47 366.592C2530.57 365.568 2536.2 360.619 2543.37 351.744ZM2445.07 365.056C2449.16 365.056 2454.11 362.496 2459.91 357.376C2466.06 352.256 2472.37 345.429 2478.86 336.896C2485.34 328.363 2491.66 318.805 2497.8 308.224C2504.29 297.643 2509.92 286.891 2514.7 275.968C2513.33 271.531 2510.09 267.947 2504.97 265.216C2500.19 262.485 2494.56 261.12 2488.07 261.12C2480.22 261.12 2472.88 263.168 2466.06 267.264C2459.23 271.019 2453.26 276.48 2448.14 283.648C2443.36 290.475 2439.43 298.837 2436.36 308.736C2433.63 318.293 2432.27 328.875 2432.27 340.48C2432.27 347.989 2433.46 353.963 2435.85 358.4C2438.58 362.837 2441.65 365.056 2445.07 365.056ZM2715.99 348.16C2716.67 347.477 2717.53 347.648 2718.55 348.672C2719.57 349.355 2719.92 350.379 2719.57 351.744C2713.43 360.277 2706.26 367.787 2698.07 374.272C2690.22 380.757 2682.37 384 2674.52 384C2668.72 384 2664.11 382.123 2660.69 378.368C2657.62 374.613 2656.09 369.664 2656.09 363.52C2656.09 351.573 2658.13 338.603 2662.23 324.608C2666.67 310.613 2672.47 296.448 2679.64 282.112C2680.66 279.723 2681.17 277.163 2681.17 274.432C2681.17 271.019 2679.64 269.312 2676.57 269.312C2663.94 269.312 2649.94 278.016 2634.58 295.424C2619.22 312.491 2605.06 339.797 2592.09 377.344C2591.74 378.368 2590.55 379.392 2588.5 380.416C2586.8 381.099 2584.75 381.781 2582.36 382.464C2579.97 382.805 2577.58 383.147 2575.19 383.488C2572.8 383.829 2570.92 384 2569.56 384C2567.85 384 2566.49 383.659 2565.46 382.976C2564.78 382.293 2564.78 381.099 2565.46 379.392C2571.26 364.715 2577.07 348.672 2582.87 331.264C2589.01 313.515 2594.3 295.765 2598.74 278.016C2599.77 274.603 2599.94 272.213 2599.25 270.848C2598.57 269.141 2597.38 268.288 2595.67 268.288C2591.92 268.288 2588.33 269.995 2584.92 273.408C2581.5 276.48 2578.43 279.893 2575.7 283.648C2574.68 284.331 2573.65 284.16 2572.63 283.136C2571.95 282.112 2571.78 281.088 2572.12 280.064C2573.82 277.675 2576.04 274.944 2578.77 271.872C2581.85 268.8 2585.26 265.899 2589.01 263.168C2592.77 260.096 2596.69 257.707 2600.79 256C2604.89 253.952 2608.98 252.928 2613.08 252.928C2618.88 252.928 2622.64 254.805 2624.34 258.56C2626.39 261.973 2626.9 266.24 2625.88 271.36C2624.17 278.869 2622.29 286.037 2620.25 292.864C2618.54 299.349 2616.32 306.688 2613.59 314.88C2617.69 307.371 2622.64 300.032 2628.44 292.864C2634.58 285.355 2641.24 278.699 2648.41 272.896C2655.92 266.752 2663.94 261.973 2672.47 258.56C2681 254.805 2690.05 252.928 2699.61 252.928C2703.7 252.928 2706.77 253.952 2708.82 256C2711.21 258.048 2712.41 260.437 2712.41 263.168C2712.41 267.947 2711.21 272.213 2708.82 275.968C2701.65 288.939 2695.51 302.421 2690.39 316.416C2685.61 330.069 2683.22 342.357 2683.22 353.28C2683.22 362.155 2686.12 366.592 2691.93 366.592C2695.68 366.592 2699.44 365.056 2703.19 361.984C2706.94 358.912 2711.21 354.304 2715.99 348.16ZM2811.87 252.928C2823.82 252.928 2832.69 256.512 2838.49 263.68C2844.3 270.848 2847.2 279.211 2847.2 288.768C2847.2 302.08 2844.47 314.539 2839.01 326.144C2833.89 337.408 2827.4 347.477 2819.55 356.352C2812.04 364.885 2803.85 371.712 2794.97 376.832C2786.1 381.611 2778.08 384 2770.91 384C2759.3 384 2750.43 380.587 2744.29 373.76C2738.48 366.592 2735.58 357.547 2735.58 346.624C2735.58 336.725 2737.63 326.315 2741.73 315.392C2746.16 304.469 2751.8 294.4 2758.62 285.184C2765.79 275.968 2773.98 268.288 2783.2 262.144C2792.41 256 2801.97 252.928 2811.87 252.928ZM2783.71 368.128C2794.29 368.128 2803.17 362.667 2810.33 351.744C2817.84 340.48 2821.6 325.12 2821.6 305.664C2821.6 295.424 2819.55 286.891 2815.45 280.064C2811.36 273.237 2805.38 269.824 2797.53 269.824C2786.61 269.824 2777.74 275.115 2770.91 285.696C2764.08 296.277 2760.67 311.808 2760.67 332.288C2760.67 344.235 2762.72 353.28 2766.81 359.424C2771.25 365.227 2776.88 368.128 2783.71 368.128ZM2921.85 267.776C2921.85 272.896 2921.34 278.699 2920.32 285.184C2919.29 291.669 2917.93 298.325 2916.22 305.152C2923.05 288.768 2930.56 275.968 2938.75 266.752C2946.94 257.536 2955.82 252.928 2965.37 252.928C2970.49 252.928 2974.42 254.123 2977.15 256.512C2979.88 258.901 2981.25 261.973 2981.25 265.728C2981.25 269.141 2979.88 273.579 2977.15 279.04C2974.76 284.501 2972.71 288.256 2971.01 290.304C2970.32 290.645 2969.64 290.645 2968.96 290.304C2968.28 289.621 2967.93 288.939 2967.93 288.256C2967.93 285.867 2966.91 283.819 2964.86 282.112C2963.16 280.405 2960.42 279.552 2956.67 279.552C2944.72 279.552 2933.8 287.744 2923.9 304.128C2914.34 320.171 2905.47 343.381 2897.28 373.76C2896.94 375.467 2895.74 377.003 2893.69 378.368C2891.65 379.392 2889.26 380.416 2886.53 381.44C2884.14 382.123 2881.58 382.805 2878.85 383.488C2876.12 383.829 2873.73 384 2871.68 384C2867.92 384 2866.9 381.952 2868.61 377.856C2871.68 370.688 2874.58 363.008 2877.31 354.816C2880.38 346.283 2883.11 337.749 2885.5 329.216C2887.89 320.683 2889.94 312.491 2891.65 304.64C2893.35 296.448 2894.72 288.939 2895.74 282.112C2896.42 276.992 2896.6 273.067 2896.25 270.336C2896.25 267.605 2894.89 266.24 2892.16 266.24C2888.74 266.24 2885.16 267.776 2881.41 270.848C2877.99 273.579 2874.75 277.163 2871.68 281.6C2870.31 282.624 2868.95 282.795 2867.58 282.112C2866.56 281.088 2866.39 279.893 2867.07 278.528C2869.12 275.797 2871.51 273.067 2874.24 270.336C2877.31 267.264 2880.55 264.533 2883.97 262.144C2887.72 259.413 2891.48 257.195 2895.23 255.488C2899.33 253.781 2903.42 252.928 2907.52 252.928C2912.98 252.928 2916.73 254.293 2918.78 257.024C2920.83 259.413 2921.85 262.997 2921.85 267.776Z" fill="url(#paint4_linear_33_18)"/>
<path d="M663.128 47.616C664.835 47.616 666.029 48.64 666.712 50.688C667.395 52.3947 667.224 53.9307 666.2 55.296C648.792 72.3627 633.261 91.4773 619.608 112.64C606.296 133.461 595.032 154.965 585.816 177.152C576.6 199.339 569.603 221.355 564.824 243.2C560.387 264.704 558.168 284.501 558.168 302.592C558.168 321.024 560.387 335.531 564.824 346.112C569.261 356.352 575.405 361.472 583.256 361.472C590.083 361.472 596.568 358.912 602.712 353.792C609.197 348.672 615.512 341.504 621.656 332.288C622.68 331.605 623.704 331.605 624.728 332.288C626.093 332.971 626.605 334.165 626.264 335.872C622.509 341.675 618.243 347.477 613.464 353.28C608.685 358.741 603.395 363.861 597.592 368.64C592.131 373.077 586.499 376.832 580.696 379.904C574.893 382.635 569.261 384 563.8 384C551.171 384 541.784 378.197 535.64 366.592C529.496 354.987 526.424 339.456 526.424 320C526.424 303.957 528.301 286.208 532.056 266.752C535.811 246.955 541.272 226.816 548.44 206.336C555.949 185.856 564.824 165.888 575.064 146.432C585.645 126.635 597.592 108.885 610.904 93.184C590.424 108.544 569.261 126.976 547.416 148.48C525.571 169.984 504.408 193.024 483.928 217.6C463.789 241.835 444.845 266.923 427.096 292.864C409.688 318.805 395.181 344.064 383.576 368.64C382.893 370.005 381.528 371.712 379.48 373.76C377.432 375.467 375.043 377.173 372.312 378.88C369.581 380.245 366.851 381.44 364.12 382.464C361.389 383.488 359 384 356.952 384C354.221 384 353.197 382.805 353.88 380.416C360.365 327.509 369.581 280.405 381.528 239.104C393.816 197.803 408.152 159.744 424.536 124.928C397.229 165.888 370.435 202.581 344.152 235.008C318.211 267.093 291.928 294.229 265.304 316.416C239.021 338.261 212.227 354.987 184.92 366.592C157.613 378.197 129.453 384 100.44 384C68.3547 384 43.608 375.979 26.2 359.936C9.13333 343.893 0.6 322.731 0.6 296.448C0.6 279.04 5.54933 263.509 15.448 249.856C25.3467 235.861 39 225.621 56.408 219.136C57.7733 218.453 58.6267 218.795 58.968 220.16C59.6507 221.525 59.6507 222.72 58.968 223.744C48.3867 230.571 40.8773 238.421 36.44 247.296C32.344 256.171 30.296 267.776 30.296 282.112C30.296 293.376 32.1733 304.128 35.928 314.368C39.6827 324.267 45.144 333.141 52.312 340.992C59.48 348.501 68.5253 354.475 79.448 358.912C90.3707 363.349 103 365.568 117.336 365.568C147.032 365.568 175.363 358.741 202.328 345.088C229.635 331.435 256.088 312.832 281.688 289.28C307.629 265.387 332.888 237.397 357.464 205.312C382.381 173.227 407.128 138.752 431.704 101.888C407.811 93.696 382.723 86.8693 356.44 81.408C330.499 75.6053 305.411 72.704 281.176 72.704C253.528 72.704 232.195 80.5546 217.176 96.256C202.157 111.616 192.941 132.437 189.528 158.72C188.845 160.427 187.821 161.109 186.456 160.768C185.432 160.427 184.749 159.403 184.408 157.696C188.163 123.904 200.451 98.1333 221.272 80.384C242.093 62.6346 269.229 53.76 302.68 53.76C316.333 53.76 330.84 54.784 346.2 56.832C361.56 58.5387 376.579 60.928 391.256 64C406.275 67.072 420.44 70.4853 433.752 74.24C447.405 77.6533 459.352 81.0667 469.592 84.48C470.957 84.1387 472.664 83.6267 474.712 82.944C476.077 83.2853 476.931 84.1387 477.272 85.504C477.613 86.8693 477.443 88.064 476.76 89.088C471.981 91.8187 467.885 95.5733 464.472 100.352C461.4 104.789 457.987 110.421 454.232 117.248C437.165 151.723 423.512 187.733 413.272 225.28C403.373 262.485 395.181 300.203 388.696 338.432C404.397 310.101 422.829 281.771 443.992 253.44C465.496 224.768 488.365 197.632 512.6 172.032C536.835 146.432 561.752 122.88 587.352 101.376C613.293 79.872 638.552 61.952 663.128 47.616ZM760.584 267.776C761.949 264.363 765.704 261.12 771.848 258.048C777.992 254.635 783.453 252.928 788.232 252.928C791.304 252.928 792.499 254.123 791.816 256.512C784.307 277.675 776.797 298.325 769.288 318.464C762.12 338.261 754.611 358.741 746.76 379.904C729.693 423.936 708.36 456.363 682.76 477.184C657.501 498.005 630.536 508.416 601.864 508.416C582.067 508.416 566.536 503.808 555.272 494.592C544.008 485.376 538.376 474.283 538.376 461.312C538.376 453.803 540.936 446.464 546.056 439.296C551.176 432.128 558.173 427.008 567.048 423.936C568.413 423.595 569.437 423.936 570.12 424.96C570.803 425.984 570.803 427.008 570.12 428.032C564.659 433.835 561.928 441.173 561.928 450.048C561.928 464.384 566.365 475.989 575.24 484.864C584.115 493.739 596.915 498.176 613.64 498.176C625.587 498.176 636.509 496.299 646.408 492.544C656.307 488.789 665.523 482.133 674.056 472.576C682.931 463.019 691.464 450.219 699.656 434.176C707.848 418.133 716.211 397.995 724.744 373.76C728.84 362.496 732.424 352.427 735.496 343.552C738.909 334.677 742.323 324.949 745.736 314.368C739.251 324.608 732.595 333.995 725.768 342.528C718.941 351.061 711.944 358.4 704.776 364.544C697.949 370.688 691.293 375.467 684.808 378.88C678.323 382.293 672.349 384 666.888 384C660.061 384 655.112 381.952 652.04 377.856C648.968 373.76 647.432 368.128 647.432 360.96C647.432 349.013 649.821 335.36 654.6 320C659.72 304.299 666.547 289.28 675.08 274.944C671.325 277.333 667.912 279.552 664.84 281.6C661.768 283.648 658.867 286.037 656.136 288.768C655.112 289.451 654.088 289.28 653.064 288.256C652.381 286.891 652.381 285.696 653.064 284.672C655.453 282.283 658.696 279.723 662.792 276.992C666.888 273.92 671.325 271.019 676.104 268.288C680.883 265.557 685.661 262.827 690.44 260.096C695.56 257.365 700.509 254.976 705.288 252.928C708.701 252.928 710.067 254.464 709.384 257.536C703.923 264.363 698.973 272.043 694.536 280.576C690.44 288.768 686.856 297.131 683.784 305.664C680.712 313.856 678.323 322.048 676.616 330.24C675.251 338.432 674.568 345.771 674.568 352.256C674.568 361.813 677.64 366.592 683.784 366.592C689.245 366.592 695.731 363.179 703.24 356.352C710.749 349.525 718.088 341.163 725.256 331.264C732.765 321.024 739.592 310.272 745.736 299.008C752.221 287.403 757.171 276.992 760.584 267.776ZM868.86 252.928C876.369 252.928 882.343 253.952 886.78 256C891.559 258.048 893.948 260.608 893.948 263.68C893.948 267.435 892.924 271.701 890.876 276.48C889.169 281.259 887.463 285.184 885.756 288.256C885.073 288.939 884.22 289.109 883.196 288.768C882.172 288.085 881.66 287.061 881.66 285.696C882.684 283.307 883.196 279.893 883.196 275.456C883.196 270.677 881.831 266.752 879.1 263.68C876.711 260.608 873.297 259.072 868.86 259.072C863.057 259.072 858.279 260.949 854.524 264.704C851.111 268.117 849.404 273.067 849.404 279.552C849.404 285.013 850.769 290.304 853.5 295.424C856.572 300.203 859.815 305.152 863.228 310.272C866.983 315.051 870.396 320.341 873.468 326.144C876.54 331.605 878.076 337.92 878.076 345.088C878.076 357.376 873.127 366.933 863.228 373.76C853.329 380.587 840.359 384 824.316 384C812.711 384 803.495 382.123 796.668 378.368C790.183 374.613 786.94 370.517 786.94 366.08C786.94 364.715 787.452 362.837 788.476 360.448C789.5 358.059 790.865 355.499 792.572 352.768C794.279 350.037 796.156 347.307 798.204 344.576C800.252 341.845 802.471 339.627 804.86 337.92C805.884 337.237 806.737 337.408 807.42 338.432C808.444 339.456 808.615 340.48 807.932 341.504C805.884 343.552 804.348 345.771 803.324 348.16C802.3 350.208 801.788 353.109 801.788 356.864C801.788 363.008 803.836 368.128 807.932 372.224C812.028 375.979 817.319 377.856 823.804 377.856C832.679 377.856 839.505 375.467 844.284 370.688C849.404 365.568 851.964 359.424 851.964 352.256C851.964 345.771 850.428 339.797 847.356 334.336C844.625 328.533 841.553 323.072 838.14 317.952C834.727 312.491 831.484 307.029 828.412 301.568C825.681 296.107 824.316 290.304 824.316 284.16C824.316 275.285 828.071 267.947 835.58 262.144C843.089 256 854.183 252.928 868.86 252.928ZM1008.66 255.488C1010.37 256.171 1011.05 257.195 1010.71 258.56C1010.37 259.584 1008.83 260.437 1006.1 261.12C1000.98 261.12 995.011 261.291 988.184 261.632C981.699 261.973 974.701 262.485 967.192 263.168C960.365 279.893 954.733 296.277 950.296 312.32C945.859 328.021 943.64 340.821 943.64 350.72C943.64 362.325 948.077 368.128 956.952 368.128C965.827 368.128 975.725 360.448 986.648 345.088C987.672 344.405 988.525 344.405 989.208 345.088C990.232 345.771 990.573 346.965 990.232 348.672C984.429 358.229 977.091 366.592 968.216 373.76C959.341 380.587 950.637 384 942.104 384C933.229 384 926.573 381.952 922.136 377.856C918.04 373.419 915.992 367.445 915.992 359.936C915.992 350.037 918.381 336.384 923.16 318.976C927.939 301.568 934.083 283.819 941.592 265.728C932.717 266.752 924.525 268.117 917.016 269.824C915.309 269.483 914.797 268.629 915.48 267.264C916.504 265.899 918.04 264.533 920.088 263.168C922.477 261.461 925.208 260.096 928.28 259.072C931.352 257.707 934.253 257.024 936.984 257.024C938.349 257.024 939.715 257.024 941.08 257.024C942.445 257.024 943.811 256.853 945.176 256.512C949.613 246.613 954.221 237.056 959 227.84C963.779 218.624 968.557 210.261 973.336 202.752C975.384 200.363 978.115 198.315 981.528 196.608C985.283 194.56 988.867 193.024 992.28 192C995.693 190.976 998.424 190.464 1000.47 190.464C1002.86 190.123 1003.89 190.635 1003.54 192C997.741 200.875 991.939 210.773 986.136 221.696C980.675 232.619 975.384 244.053 970.264 256C976.749 255.659 983.235 255.488 989.72 255.488C996.547 255.488 1002.86 255.488 1008.66 255.488ZM1111.84 278.528C1111.84 297.984 1086.07 311.296 1034.53 318.464C1034.19 321.877 1033.85 325.291 1033.51 328.704C1033.51 332.117 1033.51 335.701 1033.51 339.456C1033.51 348.331 1035.56 355.157 1039.65 359.936C1043.75 364.715 1050.23 367.104 1059.11 367.104C1065.59 367.104 1072.25 365.227 1079.08 361.472C1085.9 357.717 1091.36 352.939 1095.46 347.136C1096.83 346.453 1097.85 346.795 1098.53 348.16C1099.21 349.184 1099.39 350.379 1099.04 351.744C1092.22 360.619 1083.51 368.299 1072.93 374.784C1062.69 380.928 1051.6 384 1039.65 384C1027.71 384 1019 381.099 1013.54 375.296C1008.42 369.152 1005.86 360.619 1005.86 349.696C1005.86 339.115 1008.08 328.192 1012.52 316.928C1016.95 305.323 1022.59 294.741 1029.41 285.184C1036.58 275.627 1044.6 267.947 1053.48 262.144C1062.69 256 1071.91 252.928 1081.12 252.928C1090.34 252.928 1097.68 255.659 1103.14 261.12C1108.94 266.24 1111.84 272.043 1111.84 278.528ZM1067.3 266.24C1059.45 266.24 1052.62 269.995 1046.82 277.504C1041.36 284.672 1037.6 295.936 1035.56 311.296C1051.94 309.589 1064.06 306.517 1071.91 302.08C1079.76 297.301 1083.68 291.499 1083.68 284.672C1083.68 279.552 1082.15 275.285 1079.08 271.872C1076 268.117 1072.08 266.24 1067.3 266.24ZM1181.63 267.776C1181.63 272.896 1181.12 278.699 1180.1 285.184C1179.07 291.669 1177.71 298.325 1176 305.152C1182.83 288.768 1190.34 275.968 1198.53 266.752C1206.72 257.536 1215.59 252.928 1225.15 252.928C1230.27 252.928 1234.2 254.123 1236.93 256.512C1239.66 258.901 1241.02 261.973 1241.02 265.728C1241.02 269.141 1239.66 273.579 1236.93 279.04C1234.54 284.501 1232.49 288.256 1230.78 290.304C1230.1 290.645 1229.42 290.645 1228.74 290.304C1228.05 289.621 1227.71 288.939 1227.71 288.256C1227.71 285.867 1226.69 283.819 1224.64 282.112C1222.93 280.405 1220.2 279.552 1216.45 279.552C1204.5 279.552 1193.58 287.744 1183.68 304.128C1174.12 320.171 1165.25 343.381 1157.06 373.76C1156.71 375.467 1155.52 377.003 1153.47 378.368C1151.42 379.392 1149.03 380.416 1146.3 381.44C1143.91 382.123 1141.35 382.805 1138.62 383.488C1135.89 383.829 1133.5 384 1131.46 384C1127.7 384 1126.68 381.952 1128.38 377.856C1131.46 370.688 1134.36 363.008 1137.09 354.816C1140.16 346.283 1142.89 337.749 1145.28 329.216C1147.67 320.683 1149.72 312.491 1151.42 304.64C1153.13 296.448 1154.5 288.939 1155.52 282.112C1156.2 276.992 1156.37 273.067 1156.03 270.336C1156.03 267.605 1154.67 266.24 1151.94 266.24C1148.52 266.24 1144.94 267.776 1141.18 270.848C1137.77 273.579 1134.53 277.163 1131.46 281.6C1130.09 282.624 1128.73 282.795 1127.36 282.112C1126.34 281.088 1126.17 279.893 1126.85 278.528C1128.9 275.797 1131.29 273.067 1134.02 270.336C1137.09 267.264 1140.33 264.533 1143.74 262.144C1147.5 259.413 1151.25 257.195 1155.01 255.488C1159.1 253.781 1163.2 252.928 1167.3 252.928C1172.76 252.928 1176.51 254.293 1178.56 257.024C1180.61 259.413 1181.63 262.997 1181.63 267.776ZM1352.08 267.776C1353.45 264.363 1357.2 261.12 1363.35 258.048C1369.49 254.635 1374.95 252.928 1379.73 252.928C1382.8 252.928 1384 254.123 1383.32 256.512C1375.81 277.675 1368.3 298.325 1360.79 318.464C1353.62 338.261 1346.11 358.741 1338.26 379.904C1321.19 423.936 1299.86 456.363 1274.26 477.184C1249 498.005 1222.04 508.416 1193.36 508.416C1173.57 508.416 1158.04 503.808 1146.77 494.592C1135.51 485.376 1129.88 474.283 1129.88 461.312C1129.88 453.803 1132.44 446.464 1137.56 439.296C1142.68 432.128 1149.67 427.008 1158.55 423.936C1159.91 423.595 1160.94 423.936 1161.62 424.96C1162.3 425.984 1162.3 427.008 1161.62 428.032C1156.16 433.835 1153.43 441.173 1153.43 450.048C1153.43 464.384 1157.87 475.989 1166.74 484.864C1175.61 493.739 1188.41 498.176 1205.14 498.176C1217.09 498.176 1228.01 496.299 1237.91 492.544C1247.81 488.789 1257.02 482.133 1265.56 472.576C1274.43 463.019 1282.96 450.219 1291.16 434.176C1299.35 418.133 1307.71 397.995 1316.24 373.76C1320.34 362.496 1323.92 352.427 1327 343.552C1330.41 334.677 1333.82 324.949 1337.24 314.368C1330.75 324.608 1324.09 333.995 1317.27 342.528C1310.44 351.061 1303.44 358.4 1296.28 364.544C1289.45 370.688 1282.79 375.467 1276.31 378.88C1269.82 382.293 1263.85 384 1258.39 384C1251.56 384 1246.61 381.952 1243.54 377.856C1240.47 373.76 1238.93 368.128 1238.93 360.96C1238.93 349.013 1241.32 335.36 1246.1 320C1251.22 304.299 1258.05 289.28 1266.58 274.944C1262.83 277.333 1259.41 279.552 1256.34 281.6C1253.27 283.648 1250.37 286.037 1247.64 288.768C1246.61 289.451 1245.59 289.28 1244.56 288.256C1243.88 286.891 1243.88 285.696 1244.56 284.672C1246.95 282.283 1250.2 279.723 1254.29 276.992C1258.39 273.92 1262.83 271.019 1267.6 268.288C1272.38 265.557 1277.16 262.827 1281.94 260.096C1287.06 257.365 1292.01 254.976 1296.79 252.928C1300.2 252.928 1301.57 254.464 1300.88 257.536C1295.42 264.363 1290.47 272.043 1286.04 280.576C1281.94 288.768 1278.36 297.131 1275.28 305.664C1272.21 313.856 1269.82 322.048 1268.12 330.24C1266.75 338.432 1266.07 345.771 1266.07 352.256C1266.07 361.813 1269.14 366.592 1275.28 366.592C1280.75 366.592 1287.23 363.179 1294.74 356.352C1302.25 349.525 1309.59 341.163 1316.76 331.264C1324.27 321.024 1331.09 310.272 1337.24 299.008C1343.72 287.403 1348.67 276.992 1352.08 267.776Z" fill="url(#paint5_linear_33_18)"/>
</g>
<defs>
<linearGradient id="paint0_linear_33_18" x1="1557.36" y1="6.10352e-05" x2="1557.36" y2="512" gradientUnits="userSpaceOnUse">
<stop stop-color="#897121"/>
<stop offset="0.5" stop-color="#F7D258"/>
<stop offset="1" stop-color="#897121"/>
</linearGradient>
<linearGradient id="paint1_linear_33_18" x1="1557.36" y1="6.10352e-05" x2="1557.36" y2="512" gradientUnits="userSpaceOnUse">
<stop stop-color="#897121"/>
<stop offset="0.5" stop-color="#F7D258"/>
<stop offset="1" stop-color="#897121"/>
</linearGradient>
<linearGradient id="paint2_linear_33_18" x1="1557.36" y1="6.10352e-05" x2="1557.36" y2="512" gradientUnits="userSpaceOnUse">
<stop stop-color="#897121"/>
<stop offset="0.5" stop-color="#F7D258"/>
<stop offset="1" stop-color="#897121"/>
</linearGradient>
<linearGradient id="paint3_linear_33_18" x1="1557.36" y1="6.10352e-05" x2="1557.36" y2="512" gradientUnits="userSpaceOnUse">
<stop stop-color="#897121"/>
<stop offset="0.5" stop-color="#F7D258"/>
<stop offset="1" stop-color="#897121"/>
</linearGradient>
<linearGradient id="paint4_linear_33_18" x1="1733.72" y1="256" x2="2960.72" y2="256" gradientUnits="userSpaceOnUse">
<stop stop-color="#F7D258"/>
<stop offset="1" stop-color="#897121"/>
</linearGradient>
<linearGradient id="paint5_linear_33_18" x1="-25" y1="256" x2="1381" y2="256" gradientUnits="userSpaceOnUse">
<stop stop-color="#897121"/>
<stop offset="1" stop-color="#F7D258"/>
</linearGradient>
<clipPath id="clip0_33_18">
<rect width="2982" height="512" fill="white"/>
</clipPath>
</defs>
</svg>
