<svg width="1045" height="645" viewBox="0 0 1045 645" fill="none" xmlns="http://www.w3.org/2000/svg" xmlns:xlink="http://www.w3.org/1999/xlink">
<g filter="url(#filter0_d_4_5)">
<mask id="path-1-inside-1_4_5" fill="white">
<path fill-rule="evenodd" clip-rule="evenodd" d="M838 545H207C207 485.906 159.094 438 100 438V207C159.094 207 207 159.094 207 100H838C838 159.094 885.906 207 945 207V438C885.906 438 838 485.906 838 545Z"/>
</mask>
<path fill-rule="evenodd" clip-rule="evenodd" d="M838 545H207C207 485.906 159.094 438 100 438V207C159.094 207 207 159.094 207 100H838C838 159.094 885.906 207 945 207V438C885.906 438 838 485.906 838 545Z" fill="url(#pattern0_4_5)" shape-rendering="crispEdges"/>
<path d="M207 545H197V555H207V545ZM838 545V555H848V545H838ZM100 438H90V448H100V438ZM100 207V197H90V207H100ZM207 100V90H197V100H207ZM838 100H848V90H838V100ZM945 207H955V197H945V207ZM945 438V448H955V438H945ZM207 555H838V535H207V555ZM100 448C153.572 448 197 491.428 197 545H217C217 480.383 164.617 428 100 428V448ZM90 207V438H110V207H90ZM197 100C197 153.572 153.572 197 100 197V217C164.617 217 217 164.617 217 100H197ZM838 90H207V110H838V90ZM945 197C891.428 197 848 153.572 848 100H828C828 164.617 880.383 217 945 217V197ZM955 438V207H935V438H955ZM848 545C848 491.428 891.428 448 945 448V428C880.383 428 828 480.383 828 545H848Z" fill="#6A3019" fill-opacity="0.4" style="mix-blend-mode:difference" mask="url(#path-1-inside-1_4_5)"/>
</g>
<path fill-rule="evenodd" clip-rule="evenodd" d="M798.11 140H246.89C244.348 197.878 197.878 244.348 140 246.89V398.11C197.878 400.652 244.348 447.122 246.89 505H798.11C800.652 447.122 847.122 400.652 905 398.11V246.89C847.122 244.348 800.652 197.878 798.11 140ZM242 135C242 194.094 194.094 242 135 242V403C194.094 403 242 450.906 242 510H803C803 450.906 850.906 403 910 403V242C850.906 242 803 194.094 803 135H242Z" fill="#6A3019" fill-opacity="0.4" style="mix-blend-mode:difference"/>
<path d="M356.032 263.904C356.459 263.904 356.757 264.16 356.928 264.672C357.099 265.099 357.056 265.483 356.8 265.824C352.448 270.091 348.565 274.869 345.152 280.16C341.824 285.365 339.008 290.741 336.704 296.288C334.4 301.835 332.651 307.339 331.456 312.8C330.347 318.176 329.792 323.125 329.792 327.648C329.792 332.256 330.347 335.883 331.456 338.528C332.565 341.088 334.101 342.368 336.064 342.368C337.771 342.368 339.392 341.728 340.928 340.448C342.549 339.168 344.128 337.376 345.664 335.072C345.92 334.901 346.176 334.901 346.432 335.072C346.773 335.243 346.901 335.541 346.816 335.968C345.877 337.419 344.811 338.869 343.616 340.32C342.421 341.685 341.099 342.965 339.648 344.16C338.283 345.269 336.875 346.208 335.424 346.976C333.973 347.659 332.565 348 331.2 348C328.043 348 325.696 346.549 324.16 343.648C322.624 340.747 321.856 336.864 321.856 332C321.856 327.989 322.325 323.552 323.264 318.688C324.203 313.739 325.568 308.704 327.36 303.584C329.237 298.464 331.456 293.472 334.016 288.608C336.661 283.659 339.648 279.221 342.976 275.296C337.856 279.136 332.565 283.744 327.104 289.12C321.643 294.496 316.352 300.256 311.232 306.4C306.197 312.459 301.461 318.731 297.024 325.216C292.672 331.701 289.045 338.016 286.144 344.16C285.973 344.501 285.632 344.928 285.12 345.44C284.608 345.867 284.011 346.293 283.328 346.72C282.645 347.061 281.963 347.36 281.28 347.616C280.597 347.872 280 348 279.488 348C278.805 348 278.549 347.701 278.72 347.104C280.341 333.877 282.645 322.101 285.632 311.776C288.704 301.451 292.288 291.936 296.384 283.232C289.557 293.472 282.859 302.645 276.288 310.752C269.803 318.773 263.232 325.557 256.576 331.104C250.005 336.565 243.307 340.747 236.48 343.648C229.653 346.549 222.613 348 215.36 348C207.339 348 201.152 345.995 196.8 341.984C192.533 337.973 190.4 332.683 190.4 326.112C190.4 321.76 191.637 317.877 194.112 314.464C196.587 310.965 200 308.405 204.352 306.784C204.693 306.613 204.907 306.699 204.992 307.04C205.163 307.381 205.163 307.68 204.992 307.936C202.347 309.643 200.469 311.605 199.36 313.824C198.336 316.043 197.824 318.944 197.824 322.528C197.824 325.344 198.293 328.032 199.232 330.592C200.171 333.067 201.536 335.285 203.328 337.248C205.12 339.125 207.381 340.619 210.112 341.728C212.843 342.837 216 343.392 219.584 343.392C227.008 343.392 234.091 341.685 240.832 338.272C247.659 334.859 254.272 330.208 260.672 324.32C267.157 318.347 273.472 311.349 279.616 303.328C285.845 295.307 292.032 286.688 298.176 277.472C292.203 275.424 285.931 273.717 279.36 272.352C272.875 270.901 266.603 270.176 260.544 270.176C253.632 270.176 248.299 272.139 244.544 276.064C240.789 279.904 238.485 285.109 237.632 291.68C237.461 292.107 237.205 292.277 236.864 292.192C236.608 292.107 236.437 291.851 236.352 291.424C237.291 282.976 240.363 276.533 245.568 272.096C250.773 267.659 257.557 265.44 265.92 265.44C269.333 265.44 272.96 265.696 276.8 266.208C280.64 266.635 284.395 267.232 288.064 268C291.819 268.768 295.36 269.621 298.688 270.56C302.101 271.413 305.088 272.267 307.648 273.12C307.989 273.035 308.416 272.907 308.928 272.736C309.269 272.821 309.483 273.035 309.568 273.376C309.653 273.717 309.611 274.016 309.44 274.272C308.245 274.955 307.221 275.893 306.368 277.088C305.6 278.197 304.747 279.605 303.808 281.312C299.541 289.931 296.128 298.933 293.568 308.32C291.093 317.621 289.045 327.051 287.424 336.608C291.349 329.525 295.957 322.443 301.248 315.36C306.624 308.192 312.341 301.408 318.4 295.008C324.459 288.608 330.688 282.72 337.088 277.344C343.573 271.968 349.888 267.488 356.032 263.904ZM380.396 318.944C380.737 318.091 381.676 317.28 383.212 316.512C384.748 315.659 386.113 315.232 387.308 315.232C388.076 315.232 388.375 315.531 388.204 316.128C386.327 321.419 384.449 326.581 382.572 331.616C380.78 336.565 378.903 341.685 376.94 346.976C372.673 357.984 367.34 366.091 360.94 371.296C354.625 376.501 347.884 379.104 340.716 379.104C335.767 379.104 331.884 377.952 329.068 375.648C326.252 373.344 324.844 370.571 324.844 367.328C324.844 365.451 325.484 363.616 326.764 361.824C328.044 360.032 329.793 358.752 332.012 357.984C332.353 357.899 332.609 357.984 332.78 358.24C332.951 358.496 332.951 358.752 332.78 359.008C331.415 360.459 330.732 362.293 330.732 364.512C330.732 368.096 331.841 370.997 334.06 373.216C336.279 375.435 339.479 376.544 343.66 376.544C346.647 376.544 349.377 376.075 351.852 375.136C354.327 374.197 356.631 372.533 358.764 370.144C360.983 367.755 363.116 364.555 365.164 360.544C367.212 356.533 369.303 351.499 371.436 345.44C372.46 342.624 373.356 340.107 374.124 337.888C374.977 335.669 375.831 333.237 376.684 330.592C375.063 333.152 373.399 335.499 371.692 337.632C369.985 339.765 368.236 341.6 366.444 343.136C364.737 344.672 363.073 345.867 361.452 346.72C359.831 347.573 358.337 348 356.972 348C355.265 348 354.028 347.488 353.26 346.464C352.492 345.44 352.108 344.032 352.108 342.24C352.108 339.253 352.705 335.84 353.9 332C355.18 328.075 356.887 324.32 359.02 320.736C358.081 321.333 357.228 321.888 356.46 322.4C355.692 322.912 354.967 323.509 354.284 324.192C354.028 324.363 353.772 324.32 353.516 324.064C353.345 323.723 353.345 323.424 353.516 323.168C354.113 322.571 354.924 321.931 355.948 321.248C356.972 320.48 358.081 319.755 359.276 319.072C360.471 318.389 361.665 317.707 362.86 317.024C364.14 316.341 365.377 315.744 366.572 315.232C367.425 315.232 367.767 315.616 367.596 316.384C366.231 318.091 364.993 320.011 363.884 322.144C362.86 324.192 361.964 326.283 361.196 328.416C360.428 330.464 359.831 332.512 359.404 334.56C359.063 336.608 358.892 338.443 358.892 340.064C358.892 342.453 359.66 343.648 361.196 343.648C362.561 343.648 364.183 342.795 366.06 341.088C367.937 339.381 369.772 337.291 371.564 334.816C373.441 332.256 375.148 329.568 376.684 326.752C378.305 323.851 379.543 321.248 380.396 318.944ZM407.465 315.232C409.342 315.232 410.836 315.488 411.945 316C413.14 316.512 413.737 317.152 413.737 317.92C413.737 318.859 413.481 319.925 412.969 321.12C412.542 322.315 412.116 323.296 411.689 324.064C411.518 324.235 411.305 324.277 411.049 324.192C410.793 324.021 410.665 323.765 410.665 323.424C410.921 322.827 411.049 321.973 411.049 320.864C411.049 319.669 410.708 318.688 410.025 317.92C409.428 317.152 408.574 316.768 407.465 316.768C406.014 316.768 404.82 317.237 403.881 318.176C403.028 319.029 402.601 320.267 402.601 321.888C402.601 323.253 402.942 324.576 403.625 325.856C404.393 327.051 405.204 328.288 406.057 329.568C406.996 330.763 407.849 332.085 408.617 333.536C409.385 334.901 409.769 336.48 409.769 338.272C409.769 341.344 408.532 343.733 406.057 345.44C403.582 347.147 400.34 348 396.329 348C393.428 348 391.124 347.531 389.417 346.592C387.796 345.653 386.985 344.629 386.985 343.52C386.985 343.179 387.113 342.709 387.369 342.112C387.625 341.515 387.966 340.875 388.393 340.192C388.82 339.509 389.289 338.827 389.801 338.144C390.313 337.461 390.868 336.907 391.465 336.48C391.721 336.309 391.934 336.352 392.105 336.608C392.361 336.864 392.404 337.12 392.233 337.376C391.721 337.888 391.337 338.443 391.081 339.04C390.825 339.552 390.697 340.277 390.697 341.216C390.697 342.752 391.209 344.032 392.233 345.056C393.257 345.995 394.58 346.464 396.201 346.464C398.42 346.464 400.126 345.867 401.321 344.672C402.601 343.392 403.241 341.856 403.241 340.064C403.241 338.443 402.857 336.949 402.089 335.584C401.406 334.133 400.638 332.768 399.785 331.488C398.932 330.123 398.121 328.757 397.353 327.392C396.67 326.027 396.329 324.576 396.329 323.04C396.329 320.821 397.268 318.987 399.145 317.536C401.022 316 403.796 315.232 407.465 315.232ZM442.416 315.872C442.843 316.043 443.013 316.299 442.928 316.64C442.843 316.896 442.459 317.109 441.776 317.28C440.496 317.28 439.003 317.323 437.296 317.408C435.675 317.493 433.925 317.621 432.048 317.792C430.341 321.973 428.933 326.069 427.824 330.08C426.715 334.005 426.16 337.205 426.16 339.68C426.16 342.581 427.269 344.032 429.488 344.032C431.707 344.032 434.181 342.112 436.912 338.272C437.168 338.101 437.381 338.101 437.552 338.272C437.808 338.443 437.893 338.741 437.808 339.168C436.357 341.557 434.523 343.648 432.304 345.44C430.085 347.147 427.909 348 425.776 348C423.557 348 421.893 347.488 420.784 346.464C419.76 345.355 419.248 343.861 419.248 341.984C419.248 339.509 419.845 336.096 421.04 331.744C422.235 327.392 423.771 322.955 425.648 318.432C423.429 318.688 421.381 319.029 419.504 319.456C419.077 319.371 418.949 319.157 419.12 318.816C419.376 318.475 419.76 318.133 420.272 317.792C420.869 317.365 421.552 317.024 422.32 316.768C423.088 316.427 423.813 316.256 424.496 316.256C424.837 316.256 425.179 316.256 425.52 316.256C425.861 316.256 426.203 316.213 426.544 316.128C427.653 313.653 428.805 311.264 430 308.96C431.195 306.656 432.389 304.565 433.584 302.688C434.096 302.091 434.779 301.579 435.632 301.152C436.571 300.64 437.467 300.256 438.32 300C439.173 299.744 439.856 299.616 440.368 299.616C440.965 299.531 441.221 299.659 441.136 300C439.685 302.219 438.235 304.693 436.784 307.424C435.419 310.155 434.096 313.013 432.816 316C434.437 315.915 436.059 315.872 437.68 315.872C439.387 315.872 440.965 315.872 442.416 315.872ZM468.211 321.632C468.211 326.496 461.768 329.824 448.883 331.616C448.798 332.469 448.712 333.323 448.627 334.176C448.627 335.029 448.627 335.925 448.627 336.864C448.627 339.083 449.139 340.789 450.163 341.984C451.187 343.179 452.808 343.776 455.027 343.776C456.648 343.776 458.312 343.307 460.019 342.368C461.726 341.429 463.091 340.235 464.115 338.784C464.456 338.613 464.712 338.699 464.883 339.04C465.054 339.296 465.096 339.595 465.011 339.936C463.304 342.155 461.128 344.075 458.483 345.696C455.923 347.232 453.15 348 450.163 348C447.176 348 445 347.275 443.635 345.824C442.355 344.288 441.715 342.155 441.715 339.424C441.715 336.779 442.27 334.048 443.379 331.232C444.488 328.331 445.896 325.685 447.603 323.296C449.395 320.907 451.4 318.987 453.619 317.536C455.923 316 458.227 315.232 460.531 315.232C462.835 315.232 464.67 315.915 466.035 317.28C467.486 318.56 468.211 320.011 468.211 321.632ZM457.075 318.56C455.112 318.56 453.406 319.499 451.955 321.376C450.59 323.168 449.651 325.984 449.139 329.824C453.235 329.397 456.264 328.629 458.227 327.52C460.19 326.325 461.171 324.875 461.171 323.168C461.171 321.888 460.787 320.821 460.019 319.968C459.251 319.029 458.27 318.56 457.075 318.56ZM485.658 318.944C485.658 320.224 485.53 321.675 485.274 323.296C485.018 324.917 484.677 326.581 484.25 328.288C485.957 324.192 487.834 320.992 489.882 318.688C491.93 316.384 494.149 315.232 496.538 315.232C497.818 315.232 498.799 315.531 499.482 316.128C500.165 316.725 500.506 317.493 500.506 318.432C500.506 319.285 500.165 320.395 499.482 321.76C498.885 323.125 498.373 324.064 497.946 324.576C497.775 324.661 497.605 324.661 497.434 324.576C497.263 324.405 497.178 324.235 497.178 324.064C497.178 323.467 496.922 322.955 496.41 322.528C495.983 322.101 495.301 321.888 494.362 321.888C491.375 321.888 488.645 323.936 486.17 328.032C483.781 332.043 481.562 337.845 479.514 345.44C479.429 345.867 479.13 346.251 478.618 346.592C478.106 346.848 477.509 347.104 476.826 347.36C476.229 347.531 475.589 347.701 474.906 347.872C474.223 347.957 473.626 348 473.114 348C472.175 348 471.919 347.488 472.346 346.464C473.114 344.672 473.839 342.752 474.522 340.704C475.29 338.571 475.973 336.437 476.57 334.304C477.167 332.171 477.679 330.123 478.106 328.16C478.533 326.112 478.874 324.235 479.13 322.528C479.301 321.248 479.343 320.267 479.258 319.584C479.258 318.901 478.917 318.56 478.234 318.56C477.381 318.56 476.485 318.944 475.546 319.712C474.693 320.395 473.882 321.291 473.114 322.4C472.773 322.656 472.431 322.699 472.09 322.528C471.834 322.272 471.791 321.973 471.962 321.632C472.474 320.949 473.071 320.267 473.754 319.584C474.522 318.816 475.333 318.133 476.186 317.536C477.125 316.853 478.063 316.299 479.002 315.872C480.026 315.445 481.05 315.232 482.074 315.232C483.439 315.232 484.378 315.573 484.89 316.256C485.402 316.853 485.658 317.749 485.658 318.944ZM528.271 318.944C528.612 318.091 529.551 317.28 531.087 316.512C532.623 315.659 533.988 315.232 535.183 315.232C535.951 315.232 536.25 315.531 536.079 316.128C534.202 321.419 532.324 326.581 530.447 331.616C528.655 336.565 526.778 341.685 524.815 346.976C520.548 357.984 515.215 366.091 508.815 371.296C502.5 376.501 495.759 379.104 488.591 379.104C483.642 379.104 479.759 377.952 476.943 375.648C474.127 373.344 472.719 370.571 472.719 367.328C472.719 365.451 473.359 363.616 474.639 361.824C475.919 360.032 477.668 358.752 479.887 357.984C480.228 357.899 480.484 357.984 480.655 358.24C480.826 358.496 480.826 358.752 480.655 359.008C479.29 360.459 478.607 362.293 478.607 364.512C478.607 368.096 479.716 370.997 481.935 373.216C484.154 375.435 487.354 376.544 491.535 376.544C494.522 376.544 497.252 376.075 499.727 375.136C502.202 374.197 504.506 372.533 506.639 370.144C508.858 367.755 510.991 364.555 513.039 360.544C515.087 356.533 517.178 351.499 519.311 345.44C520.335 342.624 521.231 340.107 521.999 337.888C522.852 335.669 523.706 333.237 524.559 330.592C522.938 333.152 521.274 335.499 519.567 337.632C517.86 339.765 516.111 341.6 514.319 343.136C512.612 344.672 510.948 345.867 509.327 346.72C507.706 347.573 506.212 348 504.847 348C503.14 348 501.903 347.488 501.135 346.464C500.367 345.44 499.983 344.032 499.983 342.24C499.983 339.253 500.58 335.84 501.775 332C503.055 328.075 504.762 324.32 506.895 320.736C505.956 321.333 505.103 321.888 504.335 322.4C503.567 322.912 502.842 323.509 502.159 324.192C501.903 324.363 501.647 324.32 501.391 324.064C501.22 323.723 501.22 323.424 501.391 323.168C501.988 322.571 502.799 321.931 503.823 321.248C504.847 320.48 505.956 319.755 507.151 319.072C508.346 318.389 509.54 317.707 510.735 317.024C512.015 316.341 513.252 315.744 514.447 315.232C515.3 315.232 515.642 315.616 515.471 316.384C514.106 318.091 512.868 320.011 511.759 322.144C510.735 324.192 509.839 326.283 509.071 328.416C508.303 330.464 507.706 332.512 507.279 334.56C506.938 336.608 506.767 338.443 506.767 340.064C506.767 342.453 507.535 343.648 509.071 343.648C510.436 343.648 512.058 342.795 513.935 341.088C515.812 339.381 517.647 337.291 519.439 334.816C521.316 332.256 523.023 329.568 524.559 326.752C526.18 323.851 527.418 321.248 528.271 318.944ZM726.782 263.904C727.209 263.904 727.507 264.16 727.678 264.672C727.849 265.099 727.806 265.483 727.55 265.824C723.198 270.091 719.315 274.869 715.902 280.16C712.574 285.365 709.758 290.741 707.454 296.288C705.15 301.835 703.401 307.339 702.206 312.8C701.097 318.176 700.542 323.125 700.542 327.648C700.542 332.256 701.097 335.883 702.206 338.528C703.315 341.088 704.851 342.368 706.814 342.368C708.521 342.368 710.142 341.728 711.678 340.448C713.299 339.168 714.878 337.376 716.414 335.072C716.67 334.901 716.926 334.901 717.182 335.072C717.523 335.243 717.651 335.541 717.566 335.968C716.627 337.419 715.561 338.869 714.366 340.32C713.171 341.685 711.849 342.965 710.398 344.16C709.033 345.269 707.625 346.208 706.174 346.976C704.723 347.659 703.315 348 701.95 348C698.793 348 696.446 346.549 694.91 343.648C693.374 340.747 692.606 336.864 692.606 332C692.606 327.989 693.075 323.552 694.014 318.688C694.953 313.739 696.318 308.704 698.11 303.584C699.987 298.464 702.206 293.472 704.766 288.608C707.411 283.659 710.398 279.221 713.726 275.296C708.606 279.136 703.315 283.744 697.854 289.12C692.393 294.496 687.102 300.256 681.982 306.4C676.947 312.459 672.211 318.731 667.774 325.216C663.422 331.701 659.795 338.016 656.894 344.16C656.723 344.501 656.382 344.928 655.87 345.44C655.358 345.867 654.761 346.293 654.078 346.72C653.395 347.061 652.713 347.36 652.03 347.616C651.347 347.872 650.75 348 650.238 348C649.555 348 649.299 347.701 649.47 347.104C651.091 333.877 653.395 322.101 656.382 311.776C659.454 301.451 663.038 291.936 667.134 283.232C660.307 293.472 653.609 302.645 647.038 310.752C640.553 318.773 633.982 325.557 627.326 331.104C620.755 336.565 614.057 340.747 607.23 343.648C600.403 346.549 593.363 348 586.11 348C578.089 348 571.902 345.995 567.55 341.984C563.283 337.973 561.15 332.683 561.15 326.112C561.15 321.76 562.387 317.877 564.862 314.464C567.337 310.965 570.75 308.405 575.102 306.784C575.443 306.613 575.657 306.699 575.742 307.04C575.913 307.381 575.913 307.68 575.742 307.936C573.097 309.643 571.219 311.605 570.11 313.824C569.086 316.043 568.574 318.944 568.574 322.528C568.574 325.344 569.043 328.032 569.982 330.592C570.921 333.067 572.286 335.285 574.078 337.248C575.87 339.125 578.131 340.619 580.862 341.728C583.593 342.837 586.75 343.392 590.334 343.392C597.758 343.392 604.841 341.685 611.582 338.272C618.409 334.859 625.022 330.208 631.422 324.32C637.907 318.347 644.222 311.349 650.366 303.328C656.595 295.307 662.782 286.688 668.926 277.472C662.953 275.424 656.681 273.717 650.11 272.352C643.625 270.901 637.353 270.176 631.294 270.176C624.382 270.176 619.049 272.139 615.294 276.064C611.539 279.904 609.235 285.109 608.382 291.68C608.211 292.107 607.955 292.277 607.614 292.192C607.358 292.107 607.187 291.851 607.102 291.424C608.041 282.976 611.113 276.533 616.318 272.096C621.523 267.659 628.307 265.44 636.67 265.44C640.083 265.44 643.71 265.696 647.55 266.208C651.39 266.635 655.145 267.232 658.814 268C662.569 268.768 666.11 269.621 669.438 270.56C672.851 271.413 675.838 272.267 678.398 273.12C678.739 273.035 679.166 272.907 679.678 272.736C680.019 272.821 680.233 273.035 680.318 273.376C680.403 273.717 680.361 274.016 680.19 274.272C678.995 274.955 677.971 275.893 677.118 277.088C676.35 278.197 675.497 279.605 674.558 281.312C670.291 289.931 666.878 298.933 664.318 308.32C661.843 317.621 659.795 327.051 658.174 336.608C662.099 329.525 666.707 322.443 671.998 315.36C677.374 308.192 683.091 301.408 689.15 295.008C695.209 288.608 701.438 282.72 707.838 277.344C714.323 271.968 720.638 267.488 726.782 263.904ZM757.162 339.936C757.333 339.765 757.546 339.765 757.802 339.936C758.058 340.107 758.143 340.363 758.058 340.704C756.522 342.923 754.815 344.715 752.938 346.08C751.061 347.36 749.269 348 747.562 348C745.599 348 744.319 346.635 743.722 343.904C743.21 341.088 743.509 337.76 744.618 333.92C742.314 337.589 739.797 340.747 737.066 343.392C734.421 345.952 731.605 347.488 728.618 348C726.57 348 724.991 347.061 723.882 345.184C722.773 343.307 722.218 341.131 722.218 338.656C722.218 335.84 722.901 333.067 724.266 330.336C725.631 327.52 727.423 325.003 729.642 322.784C731.946 320.565 734.463 318.773 737.194 317.408C740.01 315.957 742.826 315.232 745.642 315.232C748.629 315.232 750.975 315.957 752.682 317.408C753.535 316.811 754.602 316.299 755.882 315.872C757.247 315.445 758.442 315.232 759.466 315.232C759.807 315.232 759.978 315.445 759.978 315.872C758.015 318.261 756.309 320.907 754.858 323.808C753.493 326.624 752.426 329.355 751.658 332C750.89 334.56 750.421 336.864 750.25 338.912C750.079 340.96 750.25 342.368 750.762 343.136C751.189 343.648 751.914 343.819 752.938 343.648C753.962 343.392 755.37 342.155 757.162 339.936ZM732.586 343.264C733.61 343.264 734.847 342.624 736.298 341.344C737.834 340.064 739.413 338.357 741.034 336.224C742.655 334.091 744.234 331.701 745.77 329.056C747.391 326.411 748.799 323.723 749.994 320.992C749.653 319.883 748.842 318.987 747.562 318.304C746.367 317.621 744.959 317.28 743.338 317.28C741.375 317.28 739.541 317.792 737.834 318.816C736.127 319.755 734.634 321.12 733.354 322.912C732.159 324.619 731.178 326.709 730.41 329.184C729.727 331.573 729.386 334.219 729.386 337.12C729.386 338.997 729.685 340.491 730.282 341.6C730.965 342.709 731.733 343.264 732.586 343.264ZM800.317 339.04C800.488 338.869 800.701 338.912 800.957 339.168C801.213 339.339 801.298 339.595 801.213 339.936C799.677 342.069 797.885 343.947 795.837 345.568C793.874 347.189 791.912 348 789.949 348C788.498 348 787.346 347.531 786.493 346.592C785.725 345.653 785.341 344.416 785.341 342.88C785.341 339.893 785.853 336.651 786.877 333.152C787.986 329.653 789.437 326.112 791.229 322.528C791.485 321.931 791.613 321.291 791.613 320.608C791.613 319.755 791.229 319.328 790.461 319.328C787.304 319.328 783.805 321.504 779.965 325.856C776.125 330.123 772.584 336.949 769.341 346.336C769.256 346.592 768.957 346.848 768.445 347.104C768.018 347.275 767.506 347.445 766.909 347.616C766.312 347.701 765.714 347.787 765.117 347.872C764.52 347.957 764.05 348 763.709 348C763.282 348 762.941 347.915 762.685 347.744C762.514 347.573 762.514 347.275 762.685 346.848C764.136 343.179 765.586 339.168 767.037 334.816C768.573 330.379 769.896 325.941 771.005 321.504C771.261 320.651 771.304 320.053 771.133 319.712C770.962 319.285 770.664 319.072 770.237 319.072C769.298 319.072 768.402 319.499 767.549 320.352C766.696 321.12 765.928 321.973 765.245 322.912C764.989 323.083 764.733 323.04 764.477 322.784C764.306 322.528 764.264 322.272 764.349 322.016C764.776 321.419 765.33 320.736 766.013 319.968C766.781 319.2 767.634 318.475 768.573 317.792C769.512 317.024 770.493 316.427 771.517 316C772.541 315.488 773.565 315.232 774.589 315.232C776.04 315.232 776.978 315.701 777.405 316.64C777.917 317.493 778.045 318.56 777.789 319.84C777.362 321.717 776.893 323.509 776.381 325.216C775.954 326.837 775.4 328.672 774.717 330.72C775.741 328.843 776.978 327.008 778.429 325.216C779.965 323.339 781.629 321.675 783.421 320.224C785.298 318.688 787.304 317.493 789.437 316.64C791.57 315.701 793.832 315.232 796.221 315.232C797.245 315.232 798.013 315.488 798.525 316C799.122 316.512 799.421 317.109 799.421 317.792C799.421 318.987 799.122 320.053 798.525 320.992C796.733 324.235 795.197 327.605 793.917 331.104C792.722 334.517 792.125 337.589 792.125 340.32C792.125 342.539 792.85 343.648 794.301 343.648C795.24 343.648 796.178 343.264 797.117 342.496C798.056 341.728 799.122 340.576 800.317 339.04ZM824.287 315.232C827.274 315.232 829.492 316.128 830.943 317.92C832.394 319.712 833.119 321.803 833.119 324.192C833.119 327.52 832.436 330.635 831.071 333.536C829.791 336.352 828.17 338.869 826.207 341.088C824.33 343.221 822.282 344.928 820.063 346.208C817.844 347.403 815.839 348 814.047 348C811.146 348 808.927 347.147 807.391 345.44C805.94 343.648 805.215 341.387 805.215 338.656C805.215 336.181 805.727 333.579 806.751 330.848C807.86 328.117 809.268 325.6 810.975 323.296C812.767 320.992 814.815 319.072 817.119 317.536C819.423 316 821.812 315.232 824.287 315.232ZM817.247 344.032C819.892 344.032 822.111 342.667 823.903 339.936C825.78 337.12 826.719 333.28 826.719 328.416C826.719 325.856 826.207 323.723 825.183 322.016C824.159 320.309 822.666 319.456 820.703 319.456C817.972 319.456 815.754 320.779 814.047 323.424C812.34 326.069 811.487 329.952 811.487 335.072C811.487 338.059 811.999 340.32 813.023 341.856C814.132 343.307 815.54 344.032 817.247 344.032ZM851.783 318.944C851.783 320.224 851.655 321.675 851.399 323.296C851.143 324.917 850.802 326.581 850.375 328.288C852.082 324.192 853.959 320.992 856.007 318.688C858.055 316.384 860.274 315.232 862.663 315.232C863.943 315.232 864.924 315.531 865.607 316.128C866.29 316.725 866.631 317.493 866.631 318.432C866.631 319.285 866.29 320.395 865.607 321.76C865.01 323.125 864.498 324.064 864.071 324.576C863.9 324.661 863.73 324.661 863.559 324.576C863.388 324.405 863.303 324.235 863.303 324.064C863.303 323.467 863.047 322.955 862.535 322.528C862.108 322.101 861.426 321.888 860.487 321.888C857.5 321.888 854.77 323.936 852.295 328.032C849.906 332.043 847.687 337.845 845.639 345.44C845.554 345.867 845.255 346.251 844.743 346.592C844.231 346.848 843.634 347.104 842.951 347.36C842.354 347.531 841.714 347.701 841.031 347.872C840.348 347.957 839.751 348 839.239 348C838.3 348 838.044 347.488 838.471 346.464C839.239 344.672 839.964 342.752 840.647 340.704C841.415 338.571 842.098 336.437 842.695 334.304C843.292 332.171 843.804 330.123 844.231 328.16C844.658 326.112 844.999 324.235 845.255 322.528C845.426 321.248 845.468 320.267 845.383 319.584C845.383 318.901 845.042 318.56 844.359 318.56C843.506 318.56 842.61 318.944 841.671 319.712C840.818 320.395 840.007 321.291 839.239 322.4C838.898 322.656 838.556 322.699 838.215 322.528C837.959 322.272 837.916 321.973 838.087 321.632C838.599 320.949 839.196 320.267 839.879 319.584C840.647 318.816 841.458 318.133 842.311 317.536C843.25 316.853 844.188 316.299 845.127 315.872C846.151 315.445 847.175 315.232 848.199 315.232C849.564 315.232 850.503 315.573 851.015 316.256C851.527 316.853 851.783 317.749 851.783 318.944Z" fill="url(#paint0_linear_4_5)"/>
<path d="M367.648 401.792C367.648 404.032 368.416 405.952 369.952 407.552C371.488 409.088 374.08 410.4 377.728 411.488C377.92 411.616 377.888 411.872 377.632 412.256C377.44 412.576 377.152 412.96 376.768 413.408C376.384 413.792 375.968 414.144 375.52 414.464C375.072 414.784 374.72 414.976 374.464 415.04C367.36 414.72 361.856 416.256 357.952 419.648C354.112 422.976 352.192 427.936 352.192 434.528C352.192 436.768 352.512 438.848 353.152 440.768C353.856 442.688 354.816 444.352 356.032 445.76C357.312 447.168 358.816 448.288 360.544 449.12C362.336 449.888 364.352 450.272 366.592 450.272C371.84 450.272 376.128 449.056 379.456 446.624C382.784 444.192 385.184 440.256 386.656 434.816C386.848 434.496 387.04 434.4 387.232 434.528C387.488 434.656 387.648 434.912 387.712 435.296C386.944 438.88 386.016 441.856 384.928 444.224C383.904 446.592 382.944 447.968 382.048 448.352C379.36 449.568 376.64 450.496 373.888 451.136C371.136 451.712 367.904 452 364.192 452C358.176 452 353.6 450.688 350.464 448.064C347.328 445.376 345.76 441.632 345.76 436.832C345.76 433.76 346.368 430.944 347.584 428.384C348.8 425.76 350.464 423.424 352.576 421.376C354.752 419.328 357.312 417.6 360.256 416.192C363.2 414.784 366.432 413.76 369.952 413.12C367.52 412.096 365.568 410.72 364.096 408.992C362.624 407.264 361.888 405.28 361.888 403.04C361.888 401.312 362.304 399.68 363.136 398.144C364.032 396.544 365.312 395.168 366.976 394.016C368.64 392.864 370.688 391.936 373.12 391.232C375.552 390.528 378.336 390.176 381.472 390.176C383.2 390.176 384.832 390.336 386.368 390.656C387.904 390.976 389.248 391.392 390.4 391.904C391.616 392.416 392.544 393.024 393.184 393.728C393.888 394.368 394.24 395.008 394.24 395.648C394.24 396.16 394.112 396.8 393.856 397.568C393.664 398.336 393.376 399.104 392.992 399.872C392.672 400.64 392.32 401.376 391.936 402.08C391.616 402.72 391.36 403.168 391.168 403.424C390.976 403.552 390.784 403.552 390.592 403.424C390.4 403.296 390.336 403.104 390.4 402.848C390.784 402.144 391.04 401.376 391.168 400.544C391.296 399.712 391.168 398.848 390.784 397.952C390.016 396.352 388.576 395.008 386.464 393.92C384.416 392.768 381.984 392.192 379.168 392.192C375.328 392.192 372.448 393.088 370.528 394.88C368.608 396.608 367.648 398.912 367.648 401.792ZM404.099 427.424C405.507 427.424 406.627 427.616 407.459 428C408.355 428.384 408.803 428.864 408.803 429.44C408.803 430.144 408.611 430.944 408.227 431.84C407.907 432.736 407.587 433.472 407.267 434.048C407.139 434.176 406.979 434.208 406.787 434.144C406.595 434.016 406.499 433.824 406.499 433.568C406.691 433.12 406.787 432.48 406.787 431.648C406.787 430.752 406.531 430.016 406.019 429.44C405.571 428.864 404.931 428.576 404.099 428.576C403.011 428.576 402.115 428.928 401.411 429.632C400.771 430.272 400.451 431.2 400.451 432.416C400.451 433.44 400.707 434.432 401.219 435.392C401.795 436.288 402.403 437.216 403.043 438.176C403.747 439.072 404.387 440.064 404.963 441.152C405.539 442.176 405.827 443.36 405.827 444.704C405.827 447.008 404.899 448.8 403.043 450.08C401.187 451.36 398.755 452 395.747 452C393.571 452 391.843 451.648 390.563 450.944C389.347 450.24 388.739 449.472 388.739 448.64C388.739 448.384 388.835 448.032 389.027 447.584C389.219 447.136 389.475 446.656 389.795 446.144C390.115 445.632 390.467 445.12 390.851 444.608C391.235 444.096 391.651 443.68 392.099 443.36C392.291 443.232 392.451 443.264 392.579 443.456C392.771 443.648 392.803 443.84 392.675 444.032C392.291 444.416 392.003 444.832 391.811 445.28C391.619 445.664 391.523 446.208 391.523 446.912C391.523 448.064 391.907 449.024 392.675 449.792C393.443 450.496 394.435 450.848 395.651 450.848C397.315 450.848 398.595 450.4 399.491 449.504C400.451 448.544 400.931 447.392 400.931 446.048C400.931 444.832 400.643 443.712 400.067 442.688C399.555 441.6 398.979 440.576 398.339 439.616C397.699 438.592 397.091 437.568 396.515 436.544C396.003 435.52 395.747 434.432 395.747 433.28C395.747 431.616 396.451 430.24 397.859 429.152C399.267 428 401.347 427.424 404.099 427.424ZM428.008 436.064C427.624 436.192 427.432 436.032 427.432 435.584C427.88 434.24 427.784 433.056 427.144 432.032C426.568 431.008 425.48 430.496 423.88 430.496C421.832 430.496 420.168 431.776 418.888 434.336C417.672 436.896 417.064 440.224 417.064 444.32C417.064 447.328 418.248 448.832 420.616 448.832C421.704 448.832 422.888 448.448 424.168 447.68C425.512 446.848 426.728 445.792 427.816 444.512C428.072 444.384 428.296 444.416 428.488 444.608C428.68 444.8 428.712 445.024 428.584 445.28C426.984 447.328 425.192 448.96 423.208 450.176C421.224 451.392 419.112 452 416.872 452C415.464 452 414.28 451.52 413.32 450.56C412.36 449.536 411.88 448.128 411.88 446.336C411.88 444.096 412.328 441.856 413.224 439.616C414.184 437.312 415.4 435.264 416.872 433.472C418.344 431.68 419.944 430.24 421.672 429.152C423.4 428 425.096 427.424 426.76 427.424C428.232 427.424 429.384 427.84 430.216 428.672C431.048 429.504 431.464 430.432 431.464 431.456C431.464 431.84 431.336 432.256 431.08 432.704C430.888 433.152 430.6 433.6 430.216 434.048C429.896 434.496 429.512 434.912 429.064 435.296C428.68 435.68 428.328 435.936 428.008 436.064ZM460.122 445.952C460.25 445.824 460.41 445.824 460.602 445.952C460.794 446.08 460.858 446.272 460.794 446.528C459.642 448.192 458.362 449.536 456.954 450.56C455.546 451.52 454.202 452 452.922 452C451.45 452 450.49 450.976 450.042 448.928C449.658 446.816 449.882 444.32 450.714 441.44C448.986 444.192 447.098 446.56 445.049 448.544C443.066 450.464 440.954 451.616 438.714 452C437.178 452 435.994 451.296 435.162 449.888C434.33 448.48 433.914 446.848 433.914 444.992C433.914 442.88 434.426 440.8 435.45 438.752C436.474 436.64 437.818 434.752 439.482 433.088C441.21 431.424 443.098 430.08 445.146 429.056C447.258 427.968 449.37 427.424 451.482 427.424C453.722 427.424 455.482 427.968 456.762 429.056C457.402 428.608 458.202 428.224 459.161 427.904C460.186 427.584 461.082 427.424 461.85 427.424C462.106 427.424 462.234 427.584 462.234 427.904C460.762 429.696 459.482 431.68 458.394 433.856C457.37 435.968 456.57 438.016 455.994 440C455.418 441.92 455.066 443.648 454.938 445.184C454.81 446.72 454.938 447.776 455.322 448.352C455.642 448.736 456.186 448.864 456.954 448.736C457.722 448.544 458.778 447.616 460.122 445.952ZM441.69 448.448C442.458 448.448 443.386 447.968 444.474 447.008C445.626 446.048 446.81 444.768 448.026 443.168C449.242 441.568 450.426 439.776 451.578 437.792C452.794 435.808 453.85 433.792 454.746 431.744C454.49 430.912 453.882 430.24 452.922 429.728C452.026 429.216 450.97 428.96 449.754 428.96C448.282 428.96 446.906 429.344 445.626 430.112C444.346 430.816 443.226 431.84 442.266 433.184C441.37 434.464 440.634 436.032 440.058 437.888C439.546 439.68 439.29 441.664 439.29 443.84C439.29 445.248 439.514 446.368 439.962 447.2C440.474 448.032 441.05 448.448 441.69 448.448ZM485 427.424C486.408 427.424 487.528 428.128 488.36 429.536C489.256 430.88 489.704 432.48 489.704 434.336C489.704 436.96 489.16 439.36 488.072 441.536C487.048 443.648 485.672 445.504 483.944 447.104C482.216 448.64 480.232 449.856 477.992 450.752C475.752 451.584 473.48 452 471.176 452C470.088 452 469.16 451.872 468.392 451.616C467.304 454.752 466.312 458.112 465.416 461.696C464.584 465.28 464.168 468.608 464.168 471.68C464.168 473.152 464.872 473.728 466.28 473.408C466.792 473.344 467.272 473.216 467.72 473.024C468.232 472.832 468.712 472.576 469.16 472.256C469.416 472.256 469.544 472.384 469.544 472.64C469.608 472.896 469.576 473.152 469.448 473.408C469.064 473.6 468.488 473.792 467.72 473.984C467.016 474.24 466.248 474.464 465.416 474.656C464.584 474.912 463.752 475.104 462.92 475.232C462.088 475.36 461.384 475.424 460.808 475.424C460.296 475.424 459.88 475.296 459.56 475.04C459.24 474.784 459.08 474.4 459.08 473.888C459.08 470.624 459.624 466.816 460.712 462.464C461.736 458.176 463.08 453.728 464.744 449.12C464.36 448.608 464.136 448.192 464.072 447.872C464.008 447.616 464.488 447.328 465.512 447.008C466.344 444.704 467.24 442.4 468.2 440.096C469.16 437.792 470.12 435.52 471.08 433.28C472.296 430.656 472.84 429.024 472.712 428.384C472.648 427.744 472.264 427.616 471.56 428C470.6 428.512 469.544 429.408 468.392 430.688C468.264 430.816 468.104 430.784 467.912 430.592C467.784 430.336 467.752 430.144 467.816 430.016C468.264 429.504 468.84 428.96 469.544 428.384C470.248 427.744 470.984 427.168 471.752 426.656C472.584 426.144 473.384 425.728 474.152 425.408C474.92 425.024 475.592 424.832 476.168 424.832C476.872 424.832 477.32 425.152 477.512 425.792C477.768 426.368 477.736 427.008 477.416 427.712C476.584 429.952 475.496 432.48 474.152 435.296C474.792 434.4 475.528 433.504 476.36 432.608C477.192 431.648 478.056 430.784 478.952 430.016C479.912 429.248 480.904 428.64 481.928 428.192C482.952 427.68 483.976 427.424 485 427.424ZM473.576 450.08C475.112 450.08 476.552 449.792 477.896 449.216C479.24 448.576 480.392 447.68 481.352 446.528C482.376 445.312 483.176 443.84 483.752 442.112C484.392 440.32 484.712 438.272 484.712 435.968C484.712 434.432 484.424 433.184 483.848 432.224C483.272 431.264 482.44 430.784 481.352 430.784C479.88 430.784 478.12 432.096 476.072 434.72C474.024 437.344 472.136 441.024 470.408 445.76C470.216 446.272 470.024 446.816 469.832 447.392C469.64 447.904 469.448 448.448 469.256 449.024C470.28 449.728 471.72 450.08 473.576 450.08ZM513.408 432.224C513.408 435.872 508.576 438.368 498.912 439.712C498.848 440.352 498.784 440.992 498.72 441.632C498.72 442.272 498.72 442.944 498.72 443.648C498.72 445.312 499.104 446.592 499.872 447.488C500.64 448.384 501.856 448.832 503.52 448.832C504.736 448.832 505.984 448.48 507.264 447.776C508.544 447.072 509.568 446.176 510.336 445.088C510.592 444.96 510.784 445.024 510.912 445.28C511.04 445.472 511.072 445.696 511.008 445.952C509.728 447.616 508.096 449.056 506.112 450.272C504.192 451.424 502.112 452 499.872 452C497.632 452 496 451.456 494.976 450.368C494.016 449.216 493.536 447.616 493.536 445.568C493.536 443.584 493.952 441.536 494.784 439.424C495.616 437.248 496.672 435.264 497.952 433.472C499.296 431.68 500.8 430.24 502.464 429.152C504.192 428 505.92 427.424 507.648 427.424C509.376 427.424 510.752 427.936 511.776 428.96C512.864 429.92 513.408 431.008 513.408 432.224ZM505.056 429.92C503.584 429.92 502.304 430.624 501.216 432.032C500.192 433.376 499.488 435.488 499.104 438.368C502.176 438.048 504.448 437.472 505.92 436.64C507.392 435.744 508.128 434.656 508.128 433.376C508.128 432.416 507.84 431.616 507.264 430.976C506.688 430.272 505.952 429.92 505.056 429.92ZM611.395 444.704C611.523 444.576 611.715 444.512 611.971 444.512C612.291 444.512 612.387 444.672 612.259 444.992C610.915 447.168 609.347 448.896 607.555 450.176C605.763 451.392 603.843 452 601.795 452C598.979 452 596.579 451.2 594.595 449.6C592.611 447.936 590.883 445.76 589.411 443.072C588.003 440.32 586.819 437.152 585.859 433.568C584.899 429.984 584.003 426.24 583.171 422.336C583.171 421.888 583.299 421.632 583.555 421.568C583.875 421.376 584.451 421.184 585.283 420.992C586.179 420.736 586.979 420.48 587.683 420.224C587.875 420.16 588.163 420.192 588.547 420.32C588.995 420.384 589.507 420.48 590.083 420.608C590.723 420.672 591.459 420.736 592.291 420.8C593.123 420.8 594.083 420.672 595.171 420.416C597.923 419.776 600.067 418.368 601.603 416.192C603.139 413.952 603.907 410.944 603.907 407.168C603.907 405.312 603.587 403.552 602.947 401.888C602.371 400.224 601.475 398.784 600.259 397.568C599.107 396.288 597.635 395.264 595.843 394.496C594.115 393.664 592.067 393.152 589.699 392.96C588.035 395.072 586.531 397.696 585.187 400.832C583.907 403.968 582.723 407.584 581.635 411.68C579.715 418.72 577.475 424.8 574.915 429.92C572.419 434.976 569.635 439.136 566.563 442.4C563.491 445.664 560.163 448.096 556.579 449.696C552.995 451.232 549.251 452 545.347 452C540.931 452 537.699 451.008 535.651 449.024C533.667 446.976 532.675 444.32 532.675 441.056C532.675 438.112 533.507 435.52 535.171 433.28C536.899 431.04 538.979 429.472 541.411 428.576C542.051 428.32 542.243 428.544 541.987 429.248C538.275 431.232 536.419 434.176 536.419 438.08C536.419 441.216 537.411 443.744 539.395 445.664C541.379 447.52 544.355 448.448 548.323 448.448C551.523 448.448 554.307 448.096 556.675 447.392C559.107 446.624 561.315 445.12 563.299 442.88C565.283 440.576 567.139 437.312 568.867 433.088C570.659 428.864 572.515 423.264 574.435 416.288C577.315 405.664 581.315 397.888 586.435 392.96C580.483 393.152 575.363 394.304 571.075 396.416C566.851 398.464 563.203 401.696 560.131 406.112C559.875 406.24 559.651 406.24 559.459 406.112C559.267 405.984 559.235 405.76 559.363 405.44C562.371 401.024 566.403 397.472 571.459 394.784C576.515 392.032 582.627 390.496 589.795 390.176C592.163 388.576 594.787 387.392 597.667 386.624C597.987 386.624 598.147 386.752 598.147 387.008C598.147 387.2 597.987 387.36 597.667 387.488C595.939 387.936 594.243 388.832 592.579 390.176C595.267 390.176 597.667 390.592 599.779 391.424C601.891 392.256 603.683 393.376 605.155 394.784C606.627 396.192 607.747 397.792 608.515 399.584C609.283 401.376 609.667 403.232 609.667 405.152C609.667 407.84 609.155 410.272 608.131 412.448C607.171 414.624 605.763 416.48 603.907 418.016C602.115 419.552 599.907 420.704 597.283 421.472C594.723 422.176 591.843 422.368 588.643 422.048C589.603 427.04 590.659 431.232 591.811 434.624C592.963 437.952 594.211 440.608 595.555 442.592C596.963 444.576 598.499 445.984 600.163 446.816C601.891 447.648 603.747 448.064 605.731 448.064C607.907 448.064 609.795 446.944 611.395 444.704ZM628.59 427.424C630.83 427.424 632.494 428.096 633.582 429.44C634.67 430.784 635.214 432.352 635.214 434.144C635.214 436.64 634.702 438.976 633.678 441.152C632.718 443.264 631.502 445.152 630.03 446.816C628.622 448.416 627.086 449.696 625.422 450.656C623.758 451.552 622.254 452 620.91 452C618.734 452 617.07 451.36 615.918 450.08C614.83 448.736 614.286 447.04 614.286 444.992C614.286 443.136 614.67 441.184 615.438 439.136C616.27 437.088 617.326 435.2 618.606 433.472C619.95 431.744 621.486 430.304 623.214 429.152C624.942 428 626.734 427.424 628.59 427.424ZM623.31 449.024C625.294 449.024 626.958 448 628.302 445.952C629.71 443.84 630.414 440.96 630.414 437.312C630.414 435.392 630.03 433.792 629.262 432.512C628.494 431.232 627.374 430.592 625.902 430.592C623.854 430.592 622.19 431.584 620.91 433.568C619.63 435.552 618.99 438.464 618.99 442.304C618.99 444.544 619.374 446.24 620.142 447.392C620.974 448.48 622.03 449.024 623.31 449.024ZM653.34 427.424C655.58 427.424 657.244 428.096 658.332 429.44C659.42 430.784 659.964 432.352 659.964 434.144C659.964 436.64 659.452 438.976 658.428 441.152C657.468 443.264 656.252 445.152 654.78 446.816C653.372 448.416 651.836 449.696 650.172 450.656C648.508 451.552 647.004 452 645.66 452C643.484 452 641.82 451.36 640.668 450.08C639.58 448.736 639.036 447.04 639.036 444.992C639.036 443.136 639.42 441.184 640.188 439.136C641.02 437.088 642.076 435.2 643.356 433.472C644.7 431.744 646.236 430.304 647.964 429.152C649.692 428 651.484 427.424 653.34 427.424ZM648.06 449.024C650.044 449.024 651.708 448 653.052 445.952C654.46 443.84 655.164 440.96 655.164 437.312C655.164 435.392 654.78 433.792 654.012 432.512C653.244 431.232 652.124 430.592 650.652 430.592C648.604 430.592 646.94 431.584 645.66 433.568C644.38 435.552 643.74 438.464 643.74 442.304C643.74 444.544 644.124 446.24 644.892 447.392C645.724 448.48 646.78 449.024 648.06 449.024ZM698.154 431.84C698.154 430.496 697.674 429.824 696.714 429.824C694.794 429.824 692.522 431.616 689.898 435.2C687.274 438.72 684.842 443.776 682.602 450.368C682.474 450.752 681.93 451.136 680.97 451.52C680.074 451.84 679.21 452 678.378 452C677.61 452 677.322 451.712 677.514 451.136C677.898 449.984 678.41 448.544 679.05 446.816C679.754 445.088 680.394 443.328 680.97 441.536C681.61 439.68 682.154 437.952 682.602 436.352C683.05 434.688 683.274 433.408 683.274 432.512C683.274 430.784 682.73 429.92 681.642 429.92C679.978 429.92 677.866 431.648 675.306 435.104C672.81 438.496 670.378 443.584 668.01 450.368C667.882 450.752 667.37 451.136 666.474 451.52C665.578 451.84 664.778 452 664.074 452C663.754 452 663.498 451.936 663.306 451.808C663.114 451.68 663.082 451.456 663.21 451.136C663.722 449.728 664.266 448.192 664.842 446.528C665.418 444.8 665.994 443.072 666.57 441.344C667.146 439.616 667.658 437.92 668.106 436.256C668.618 434.592 669.066 433.024 669.45 431.552C669.642 430.4 669.45 429.824 668.874 429.824C668.362 429.824 667.754 430.176 667.05 430.88C666.346 431.584 665.642 432.416 664.938 433.376C664.746 433.504 664.554 433.504 664.362 433.376C664.17 433.184 664.138 432.992 664.266 432.8C665.226 431.328 666.378 430.08 667.722 429.056C669.066 427.968 670.506 427.424 672.042 427.424C673.066 427.424 673.738 427.744 674.058 428.384C674.442 429.024 674.538 429.792 674.346 430.688C674.09 432.096 673.834 433.28 673.578 434.24C673.322 435.2 672.97 436.288 672.522 437.504C674.186 434.56 676.01 432.16 677.994 430.304C680.042 428.384 682.218 427.424 684.522 427.424C685.674 427.424 686.538 427.744 687.114 428.384C687.754 429.024 688.074 429.792 688.074 430.688C688.074 433.184 687.626 435.712 686.73 438.272C688.778 434.752 690.762 432.064 692.682 430.208C694.666 428.352 697.034 427.424 699.786 427.424C701.066 427.424 701.962 427.776 702.474 428.48C703.05 429.12 703.338 429.792 703.338 430.496C703.338 431.584 703.082 432.8 702.57 434.144C702.122 435.424 701.578 436.8 700.938 438.272C700.362 439.68 699.818 441.12 699.306 442.592C698.858 444 698.634 445.376 698.634 446.72C698.634 448.32 699.146 449.12 700.17 449.12C701.194 449.12 702.57 448.064 704.298 445.952C704.49 445.824 704.65 445.856 704.778 446.048C704.97 446.24 705.002 446.464 704.874 446.72C703.594 448.32 702.282 449.6 700.938 450.56C699.594 451.52 698.282 452 697.002 452C694.89 452 693.834 450.784 693.834 448.352C693.834 446.816 694.058 445.28 694.506 443.744C694.954 442.144 695.434 440.64 695.946 439.232C696.522 437.76 697.034 436.384 697.482 435.104C697.93 433.824 698.154 432.736 698.154 431.84Z" fill="url(#paint1_linear_4_5)"/>
<defs>
<filter id="filter0_d_4_5" x="0" y="0" width="1045" height="645" filterUnits="userSpaceOnUse" color-interpolation-filters="sRGB">
<feFlood flood-opacity="0" result="BackgroundImageFix"/>
<feColorMatrix in="SourceAlpha" type="matrix" values="0 0 0 0 0 0 0 0 0 0 0 0 0 0 0 0 0 0 127 0" result="hardAlpha"/>
<feOffset/>
<feGaussianBlur stdDeviation="50"/>
<feComposite in2="hardAlpha" operator="out"/>
<feColorMatrix type="matrix" values="0 0 0 0 0 0 0 0 0 0 0 0 0 0 0 0 0 0 0.5 0"/>
<feBlend mode="normal" in2="BackgroundImageFix" result="effect1_dropShadow_4_5"/>
<feBlend mode="normal" in="SourceGraphic" in2="effect1_dropShadow_4_5" result="shape"/>
</filter>
<pattern id="pattern0_4_5" patternContentUnits="objectBoundingBox" width="1" height="1">
<use xlink:href="#image0_4_5" transform="matrix(0.000976562 0 0 0.00185437 0 -0.449438)"/>
</pattern>
<linearGradient id="paint0_linear_4_5" x1="184" y1="316" x2="862" y2="316" gradientUnits="userSpaceOnUse">
<stop stop-color="#897121"/>
<stop offset="0.5" stop-color="#F7D258"/>
<stop offset="1" stop-color="#897121"/>
</linearGradient>
<linearGradient id="paint1_linear_4_5" x1="340" y1="428" x2="706" y2="428" gradientUnits="userSpaceOnUse">
<stop stop-color="#897121"/>
<stop offset="0.498" stop-color="#F7D258"/>
<stop offset="1" stop-color="#897121"/>
</linearGradient>
<image id="image0_4_5" width="1024" height="1024" href="dark_wood_1k.jpg"/>
</defs>
</svg>
